<svg xmlns="http://www.w3.org/2000/svg" width="1120" height="800" viewBox="0 -1 14 10"><path id="hard-control" fill="black" d="M 12.00000,1.00000 L 11.88137,0.85883 L 11.76274,0.71765 L 11.64411,0.57647 L 11.52548,0.43529 L 11.40684,0.29411 L 11.28821,0.15293 L 11.16957,0.15000 L 11.05093,0.15000 L 10.93229,0.15000 L 10.81365,0.15000 L 10.69501,0.15000 L 10.57637,0.15000 L 10.45772,0.15000 L 10.33908,0.15000 L 10.22043,0.15000 L 10.10179,0.15000 L 9.98314,0.15000 L 9.86449,0.15000 L 9.74584,0.15000 L 9.62719,0.15000 L 9.50854,0.15000 L 9.38989,0.15000 L 9.27124,0.15000 L 9.15259,0.15000 L 9.03394,0.15000 L 8.91528,0.15000 L 8.79663,0.15000 L 8.67798,0.15000 L 8.55933,0.15000 L 8.44067,0.15000 L 8.32202,0.15000 L 8.20337,0.15000 L 8.08472,0.15000 L 7.96606,0.15000 L 7.84741,0.15000 L 7.72876,0.15000 L 7.61011,0.15000 L 7.49146,0.15000 L 7.37281,0.15000 L 7.25416,0.15000 L 7.13551,0.15000 L 7.01686,0.15000 L 6.89821,0.15000 L 6.77957,0.15000 L 4.64792,0.15000 L 3.12617,1.67175 L 3.04663,1.75129 L 2.96710,1.83082 L 2.88756,1.91036 L 2.80803,1.98989 L 2.72849,2.06943 L 2.64896,2.14896 L 2.56943,2.22849 L 2.48989,2.30803 L 2.41036,2.38756 L 2.33082,2.46710 L 2.25129,2.54663 L 2.17175,2.62617 L 2.09221,2.70571 L 2.01267,2.78524 L 1.93314,2.86478 L 1.85359,2.94432 L 1.77405,3.02387 L 1.69451,3.10341 L 1.61496,3.18295 L 1.53542,3.26250 L 1.45587,3.34205 L 1.37632,3.42160 L 1.29676,3.50115 L 1.21721,3.58071 L 1.13765,3.66027 L 1.05809,3.73983 L 0.97853,3.81939 L 0.89896,3.89896 L 0.83360,3.96629 L 0.77078,4.03515 L 0.71056,4.10562 L 0.65301,4.17785 L 0.59822,4.25194 L 0.54632,4.32801 L 0.49746,4.40617 L 0.45182,4.48653 L 0.40962,4.56916 L 0.37111,4.65412 L 0.33656,4.74141 L 0.30630,4.83099 L 0.28064,4.92275 L 0.25992,5.01652 L 0.24448,5.11204 L 0.23461,5.20895 L 0.23057,5.30684 L 0.23255,5.40522 L 0.24066,5.50354 L 0.25490,5.60125 L 0.27520,5.69778 L 0.30136,5.79259 L 0.33314,5.88521 L 0.37020,5.97523 L 0.41218,6.06232 L 0.45869,6.14625 L 0.50935,6.22688 L 0.56378,6.30413 L 0.62165,6.37800 L 0.68266,6.44854 L 0.74653,6.51585 L 0.81306,6.58004 L 0.88205,6.64125 L 0.95338,6.69964 L 1.02694,6.75535 L 1.10263,6.80852 L 1.18041,6.85930 L 1.26024,6.90781 L 1.34209,6.95419 L 1.42597,6.99854 L 1.51187,7.04095 L 1.59981,7.08153 L 1.68980,7.12034 L 1.78185,7.15745 L 1.87599,7.19293 L 1.97225,7.22682 L 2.07065,7.25917 L 2.17121,7.29002 L 2.27396,7.31939 L 2.35286,7.34017 L 2.42521,7.35857 L 2.49801,7.37652 L 2.57128,7.39402 L 2.64500,7.41108 L 2.71917,7.42771 L 2.79377,7.44391 L 2.86882,7.45970 L 2.94429,7.47507 L 3.02019,7.49004 L 3.09651,7.50462 L 3.17324,7.51881 L 3.25038,7.53261 L 3.32792,7.54603 L 3.40585,7.55909 L 3.48417,7.57178 L 3.56287,7.58410 L 3.64195,7.59608 L 3.72139,7.60771 L 3.80120,7.61899 L 3.88136,7.62994 L 3.96187,7.64055 L 4.04272,7.65084 L 4.12390,7.66081 L 4.20541,7.67046 L 4.28725,7.67980 L 4.36939,7.68883 L 4.45184,7.69757 L 4.53459,7.70600 L 4.61763,7.71414 L 4.70095,7.72200 L 4.78456,7.72957 L 4.86842,7.73686 L 4.95256,7.74388 L 5.03694,7.75064 L 5.12157,7.75712 L 5.20644,7.76335 L 5.29154,7.76932 L 5.37686,7.77504 L 5.46240,7.78051 L 5.54815,7.78573 L 5.63409,7.79072 L 5.72023,7.79548 L 5.80655,7.80000 L 5.89304,7.80430 L 5.97970,7.80837 L 6.06652,7.81223 L 6.15349,7.81587 L 6.24061,7.81931 L 6.32786,7.82253 L 6.41523,7.82556 L 6.50273,7.82839 L 6.59033,7.83102 L 6.67803,7.83346 L 6.76583,7.83572 L 6.85371,7.83780 L 6.94167,7.83969 L 7.03071,7.78660 L 7.11990,7.71614 L 7.20886,7.64542 L 7.29761,7.57448 L 7.38615,7.50332 L 7.47448,7.43194 L 7.56259,7.36037 L 7.65049,7.28862 L 7.73819,7.21670 L 7.82567,7.14461 L 7.91294,7.07237 L 8.00000,7.00000 L 8.00000,7.00000 L 7.91315,6.92750 L 7.82653,6.85488 L 7.74016,6.78214 L 7.65405,6.70928 L 7.56822,6.63632 L 7.48270,6.56326 L 7.39750,6.49009 L 7.31264,6.41683 L 7.22814,6.34348 L 7.14402,6.27004 L 7.06029,6.19653 L 6.97663,6.14005 L 6.89211,6.13823 L 6.80774,6.13624 L 6.72355,6.13407 L 6.63953,6.13173 L 6.55571,6.12921 L 6.47209,6.12651 L 6.38867,6.12362 L 6.30548,6.12054 L 6.22252,6.11727 L 6.13980,6.11381 L 6.05734,6.11015 L 5.97513,6.10628 L 5.89319,6.10221 L 5.81154,6.09793 L 5.73017,6.09344 L 5.64911,6.08873 L 5.56836,6.08381 L 5.48793,6.07867 L 5.40784,6.07330 L 5.32809,6.06771 L 5.24869,6.06188 L 5.16966,6.05582 L 5.09100,6.04953 L 5.01273,6.04300 L 4.93485,6.03623 L 4.85738,6.02921 L 4.78033,6.02195 L 4.70371,6.01443 L 4.62752,6.00667 L 4.55179,5.99865 L 4.47652,5.99037 L 4.40172,5.98183 L 4.32740,5.97303 L 4.25358,5.96397 L 4.18026,5.95464 L 4.10746,5.94504 L 4.03519,5.93517 L 3.96346,5.92503 L 3.89228,5.91461 L 3.82167,5.90392 L 3.75163,5.89295 L 3.68217,5.88169 L 3.61332,5.87016 L 3.54507,5.85835 L 3.47745,5.84625 L 3.41046,5.83386 L 3.34412,5.82119 L 3.27844,5.80823 L 3.21343,5.79499 L 3.14910,5.78146 L 3.08547,5.76764 L 3.02255,5.75353 L 2.96035,5.73914 L 2.89888,5.72446 L 2.83816,5.70949 L 2.77820,5.69424 L 2.72604,5.68061 L 2.65399,5.66001 L 2.58525,5.63893 L 2.51986,5.61743 L 2.45784,5.59560 L 2.39922,5.57351 L 2.34404,5.55127 L 2.29232,5.52897 L 2.24408,5.50672 L 2.19935,5.48464 L 2.15813,5.46286 L 2.12045,5.44151 L 2.08628,5.42076 L 2.05563,5.40076 L 2.02846,5.38168 L 2.00471,5.36371 L 1.98432,5.34703 L 1.96717,5.33184 L 1.95314,5.31831 L 1.94204,5.30664 L 1.93367,5.29698 L 1.92776,5.28946 L 1.92403,5.28418 L 1.92212,5.28117 L 1.92169,5.28041 L 1.92234,5.28179 L 1.92370,5.28512 L 1.92540,5.29011 L 1.92713,5.29639 L 1.92863,5.30354 L 1.92973,5.31104 L 1.93034,5.31839 L 1.93047,5.32506 L 1.93026,5.33055 L 1.92987,5.33440 L 1.92958,5.33625 L 1.92970,5.33578 L 1.93055,5.33277 L 1.93249,5.32709 L 1.93583,5.31868 L 1.94090,5.30752 L 1.94799,5.29366 L 1.95735,5.27721 L 1.96920,5.25828 L 1.98372,5.23701 L 2.00108,5.21355 L 2.02140,5.18807 L 2.04479,5.16072 L 2.07131,5.13166 L 2.10104,5.10104 L 2.18061,5.02147 L 2.26017,4.94191 L 2.33973,4.86235 L 2.41929,4.78279 L 2.49885,4.70324 L 2.57840,4.62368 L 2.65795,4.54413 L 2.73750,4.46458 L 2.81705,4.38504 L 2.89659,4.30549 L 2.97613,4.22595 L 3.05568,4.14641 L 3.13522,4.06686 L 3.21476,3.98733 L 3.29429,3.90779 L 3.37383,3.82825 L 3.45337,3.74871 L 3.53290,3.66918 L 3.61244,3.58964 L 3.69197,3.51011 L 3.77151,3.43057 L 3.85104,3.35104 L 3.93057,3.27151 L 4.01011,3.19197 L 4.08964,3.11244 L 4.16918,3.03290 L 4.24871,2.95337 L 4.32825,2.87383 L 5.35208,1.85000 L 6.77957,1.85000 L 6.89821,1.85000 L 7.01686,1.85000 L 7.13551,1.85000 L 7.25416,1.85000 L 7.37281,1.85000 L 7.49146,1.85000 L 7.61011,1.85000 L 7.72876,1.85000 L 7.84741,1.85000 L 7.96606,1.85000 L 8.08472,1.85000 L 8.20337,1.85000 L 8.32202,1.85000 L 8.44067,1.85000 L 8.55933,1.85000 L 8.67798,1.85000 L 8.79663,1.85000 L 8.91528,1.85000 L 9.03394,1.85000 L 9.15259,1.85000 L 9.27124,1.85000 L 9.38989,1.85000 L 9.50854,1.85000 L 9.62719,1.85000 L 9.74584,1.85000 L 9.86449,1.85000 L 9.98314,1.85000 L 10.10179,1.85000 L 10.22043,1.85000 L 10.33908,1.85000 L 10.45772,1.85000 L 10.57637,1.85000 L 10.69501,1.85000 L 10.81365,1.85000 L 10.93229,1.85000 L 11.05093,1.85000 L 11.16957,1.85000 L 11.28821,1.84707 L 11.40684,1.70589 L 11.52548,1.56471 L 11.64411,1.42353 L 11.76274,1.28235 L 11.88137,1.14117 L 12.00000,1.00000 Z"/></svg>