<svg xmlns="http://www.w3.org/2000/svg" width="1440" height="900" viewBox="0 0 1440 900"><title>B3 construction hypothesis, not image segmentation or canon</title><defs><mask id="mountain-occludes-stars" maskUnits="userSpaceOnUse" x="0" y="0" width="1440" height="900"><rect width="1440" height="900" fill="white"/><path d="M460 105 L970 105 L995 220 L920 400 L860 575 L720 705 L660 565 L540 420 L510 250Z" fill="black"/></mask></defs><g id="L00_background"><rect width="1440" height="900" fill="#0d111b"/></g><g id="L01_far_band"><path d="M60 200 C360 35 1040 35 1380 200" fill="none" stroke="#61768e" stroke-width="3" stroke-dasharray="2 12" stroke-linecap="round"/></g><g id="L02_middle_back"><path d="M80 330 C260 130 1160 130 1360 330" fill="none" stroke="#6eaad3" stroke-width="6" stroke-dasharray="2 12" stroke-linecap="round"/></g><g id="L03_near_back"><path d="M40 520 C330 275 1110 275 1400 520" fill="none" stroke="#aad9ef" stroke-width="9" stroke-dasharray="2 12" stroke-linecap="round"/></g><g id="L04_upper_square_back"><path d="M260 280 L710 120 L1180 280 L1180 320 L710 160 L260 320Z" fill="#4b6576" stroke="#c0d4dc"/></g><g id="L05_lower_square_back"><path d="M120 405 L710 215 L1320 405 L1320 452 L710 262 L120 452Z" fill="#5c5771" stroke="#d4bddb"/></g><g id="L06_central_mass"><path d="M460 105 L970 105 L995 220 L920 400 L860 575 L720 705 L660 565 L540 420 L510 250Z" fill="#171d29" stroke="#8ea0b3" stroke-width="3"/><path d="M738 106 L715 292 L748 424 L720 699" fill="none" stroke="#e3edf4" stroke-width="5"/></g><g id="L07_middle_front" mask="url(#mountain-occludes-stars)"><path d="M80 330 C290 490 1130 490 1360 330" fill="none" stroke="#6eaad3" stroke-width="6" stroke-dasharray="2 12" stroke-linecap="round"/></g><g id="L08_upper_square_front"><path d="M260 280 L710 435 L1180 280 L1180 320 L710 479 L260 320Z" fill="#3d5365" stroke="#c0d4dc" stroke-width="2"/></g><g id="L09_near_front"><path d="M40 520 C330 705 1110 705 1400 520" fill="none" stroke="#aad9ef" stroke-width="9" stroke-dasharray="2 12" stroke-linecap="round"/></g><g id="L10_lower_square_front"><path d="M120 405 L710 620 L1320 405 L1320 452 L710 670 L120 452Z" fill="#51465f" stroke="#d4bddb" stroke-width="2"/></g><g id="L11_walkway"><path d="M490 735 L940 735 L1220 900 L200 900Z" fill="#353b46" stroke="#a0a7b2"/></g><g id="L12_supporter"><circle cx="663" cy="698" r="16" fill="#d7dce5"/><path d="M663 717 L647 769 L600 819 M647 769 L697 785 L710 831 M657 735 L705 719 L750 738" fill="none" stroke="#d7dce5" stroke-width="18" stroke-linecap="round"/></g><g id="L13_supported"><circle cx="804" cy="741" r="15" fill="#e2c5b8"/><path d="M800 760 L806 802 L779 829 M806 802 L851 836 M797 768 L773 747 L750 738" fill="none" stroke="#e2c5b8" stroke-width="17" stroke-linecap="round"/></g><g id="L14_railing"><path d="M80 820 L500 754 M950 754 L1370 820 M180 805 L180 865 M330 784 L330 830 M1100 778 L1100 830 M1260 804 L1260 865" fill="none" stroke="#bac5d1" stroke-width="8"/></g><g id="annotations" font-family="sans-serif" fill="#fff"><text x="40" y="42" font-size="25">B3 LAYER CONSTRUCTION HYPOTHESIS</text><text x="40" y="72" font-size="16">15 editable groups. Proposed reconstruction, not masks extracted from the artwork.</text><text x="50" y="122" font-size="16">VISIBLE: body contact + one thick tier</text><text x="990" y="150" font-size="16">REBUILD: independent second tier</text><text x="1000" y="570" font-size="16">HYPOTHESIS: arc depths</text><text x="995" y="697" font-size="16">Dots are band placeholders only</text><circle cx="750" cy="738" r="20" fill="none" stroke="#ffd68a" stroke-width="2"/><text x="65" y="875" font-size="15">Working colours only. Middle arc is masked by the mountain; front crossing is unverified. No camera range validated.</text></g></svg>